<svg xmlns="http://www.w3.org/2000/svg" width="27" height="19.385" viewBox="0 0 27 19.385">
    <defs>
        <style>
            .prefix__cls-1{fill:#06357a}
        </style>
    </defs>
    <g id="prefix__quotation_review" transform="translate(-527.93 -2569.271)">
        <path id="prefix__패스_470" d="M32.885 26.578a14.631 14.631 0 0 1 4.663-4.8l-1.36-2.985a16.512 16.512 0 0 0-9.581 12.738c-.02.15-.033.3-.042.455-.005.061-.013.121-.017.182h.008c0 .057-.008.113-.008.171a5.665 5.665 0 0 0 5.472 5.84 5.665 5.665 0 0 0 5.472-5.84 5.735 5.735 0 0 0-4.607-5.761z" class="prefix__cls-1" data-name="패스 470" transform="translate(501.382 2550.477)"/>
        <path id="prefix__패스_472" d="M32.885 26.578a14.631 14.631 0 0 1 4.663-4.8l-1.36-2.985a16.512 16.512 0 0 0-9.581 12.738c-.02.15-.033.3-.042.455-.005.061-.013.121-.017.182h.008c0 .057-.008.113-.008.171a5.665 5.665 0 0 0 5.472 5.84 5.665 5.665 0 0 0 5.472-5.84 5.735 5.735 0 0 0-4.607-5.761z" class="prefix__cls-1" data-name="패스 472" transform="translate(517.382 2550.477)"/>
    </g>
</svg>
